<?xml version="1.0" encoding="UTF-8" standalone="no"?>
<svg
   xmlns:dc="http://purl.org/dc/elements/1.1/"
   xmlns:cc="http://creativecommons.org/ns#"
   xmlns:rdf="http://www.w3.org/1999/02/22-rdf-syntax-ns#"
   xmlns:svg="http://www.w3.org/2000/svg"
   xmlns="http://www.w3.org/2000/svg"
   xmlns:sodipodi="http://sodipodi.sourceforge.net/DTD/sodipodi-0.dtd"
   xmlns:inkscape="http://www.inkscape.org/namespaces/inkscape"
   inkscape:version="1.0 (4035a4fb49, 2020-05-01)"
   sodipodi:docname="linkedin.svg"
   id="svg8"
   version="1.1"
   viewBox="0 0 27.759036 27.648"
   width="270"
   height="270">
  <metadata
     id="metadata14">
    <rdf:RDF>
      <cc:Work
         rdf:about="">
        <dc:format>image/svg+xml</dc:format>
        <dc:type
           rdf:resource="http://purl.org/dc/dcmitype/StillImage" />
        <dc:title></dc:title>
      </cc:Work>
    </rdf:RDF>
  </metadata>
  <defs
     id="defs12" />
  <sodipodi:namedview
     inkscape:current-layer="svg8"
     inkscape:window-maximized="1"
     inkscape:window-y="-8"
     inkscape:window-x="-8"
     inkscape:cy="1250"
     inkscape:cx="1245"
     inkscape:zoom="0.34"
     showgrid="false"
     id="namedview10"
     inkscape:window-height="1017"
     inkscape:window-width="1920"
     inkscape:pageshadow="2"
     inkscape:pageopacity="0"
     guidetolerance="10"
     gridtolerance="10"
     objecttolerance="10"
     borderopacity="1"
     bordercolor="#666666"
     pagecolor="#ffffff" />
  <g
     transform="matrix(0.10843373,0,0,0.10843373,0,-0.055518)"
     id="g6"
     fill="none">
    <path
       id="path2"
       fill="#006699"
       d="M 0,18.338 C 0,8.216 8.474,0 18.92,0 H 237.08 C 247.53,0 256,8.216 256,18.338 V 237.665 C 256,247.79 247.53,256 237.08,256 H 18.92 C 8.475,256 0,247.791 0,237.668 V 18.335 Z" />
    <path
       id="path4"
       fill="#ffffff"
       d="M 77.796,214.238 V 98.986 H 39.488 V 214.238 H 77.8 Z M 58.65,83.253 c 13.356,0 21.671,-8.85 21.671,-19.91 -0.25,-11.312 -8.315,-19.915 -21.417,-19.915 -13.111,0 -21.674,8.603 -21.674,19.914 0,11.06 8.312,19.91 21.169,19.91 h 0.248 z M 99,214.238 h 38.305 v -64.355 c 0,-3.44 0.25,-6.889 1.262,-9.346 2.768,-6.885 9.071,-14.012 19.656,-14.012 13.858,0 19.405,10.568 19.405,26.063 v 61.65 h 38.304 v -66.082 c 0,-35.399 -18.896,-51.872 -44.099,-51.872 -20.663,0 -29.738,11.549 -34.78,19.415 h 0.255 V 98.99 H 99.002 c 0.5,10.812 -0.003,115.252 -0.003,115.252 z" />
  </g>
</svg>
