<?xml version="1.0" encoding="UTF-8" standalone="no"?>
<svg
   xmlns:dc="http://purl.org/dc/elements/1.1/"
   xmlns:cc="http://creativecommons.org/ns#"
   xmlns:rdf="http://www.w3.org/1999/02/22-rdf-syntax-ns#"
   xmlns:svg="http://www.w3.org/2000/svg"
   xmlns="http://www.w3.org/2000/svg"
   xmlns:sodipodi="http://sodipodi.sourceforge.net/DTD/sodipodi-0.dtd"
   xmlns:inkscape="http://www.inkscape.org/namespaces/inkscape"
   version="1.1"
   id="Layer_1"
   x="0px"
   y="0px"
   viewBox="0 0 270 270"
   xml:space="preserve"
   sodipodi:docname="pdf.svg"
   inkscape:version="1.0 (4035a4fb49, 2020-05-01)"
   width="270"
   height="270"><metadata
   id="metadata45"><rdf:RDF><cc:Work
       rdf:about=""><dc:format>image/svg+xml</dc:format><dc:type
         rdf:resource="http://purl.org/dc/dcmitype/StillImage" /><dc:title /></cc:Work></rdf:RDF></metadata><defs
   id="defs43" /><sodipodi:namedview
   inkscape:document-rotation="0"
   pagecolor="#ffffff"
   bordercolor="#666666"
   borderopacity="1"
   objecttolerance="10"
   gridtolerance="10"
   guidetolerance="10"
   inkscape:pageopacity="0"
   inkscape:pageshadow="2"
   inkscape:window-width="1920"
   inkscape:window-height="1017"
   id="namedview41"
   showgrid="false"
   inkscape:zoom="1.3742171"
   inkscape:cx="398.28078"
   inkscape:cy="270.09538"
   inkscape:window-x="-8"
   inkscape:window-y="-8"
   inkscape:window-maximized="1"
   inkscape:current-layer="g8" />
<g
   id="g8">
	
	<g
   transform="matrix(0.99775321,0,0,0.87303204,-19.285572,0)"
   id="g27"><path
     id="path2"
     d="m 38.658,0 h 164.23 l 87.049,86.711 v 203.227 c 0,10.679 -8.659,19.329 -19.329,19.329 H 38.658 c -10.67,0 -19.329,-8.65 -19.329,-19.329 V 19.329 C 19.329,8.65 27.989,0 38.658,0 Z"
     style="fill:#e2574c" /><path
     id="path4"
     d="m 289.658,86.981 h -67.372 c -10.67,0 -19.329,-8.659 -19.329,-19.329 V 0.193 Z"
     style="fill:#b53629" /></g>
	<path
   style="fill:#ffffff;stroke-width:1.68366"
   d="m 244.34484,156.3636 c 5.45169,0 8.12029,-4.75128 8.12029,-9.35609 0,-4.76812 -2.78309,-9.37293 -8.12029,-9.37293 h -31.04666 c -6.06959,0 -9.45374,5.02741 -9.45374,10.57675 v 76.29834 c 0,6.80198 3.87242,10.57675 9.11196,10.57675 5.20756,0 9.09681,-3.77477 9.09681,-10.57675 v -20.94134 h 18.77784 c 5.82546,0 8.73819,-4.76812 8.73819,-9.50257 0,-4.63679 -2.91273,-9.24328 -8.73819,-9.24328 H 222.05321 V 156.3636 c 0,0 22.29163,0 22.29163,0 z M 139.40747,137.63458 h -22.71592 c -6.16724,0 -10.54475,4.23104 -10.54475,10.51108 v 76.42968 c 0,7.79365 6.29688,10.23496 10.80403,10.23496 h 23.83892 c 28.21475,0 46.84611,-18.56571 46.84611,-47.22157 -0.0152,-30.29743 -17.5555,-49.95415 -48.22839,-49.95415 z m 1.09101,78.33389 h -13.84809 v -59.49038 h 12.48096 c 18.89233,0 27.10858,12.67626 27.10858,30.16779 0,16.37021 -8.07146,29.32259 -25.74145,29.32259 z M 57.283663,137.63458 H 34.779885 c -6.362545,0 -9.910013,4.19737 -9.910013,10.57675 v 76.29834 c 0,6.80198 4.067719,10.57675 9.534557,10.57675 5.466839,0 9.534558,-3.77477 9.534558,-10.57675 V 202.23319 H 58.04636 c 17.410712,0 31.77905,-12.33448 31.77905,-32.16966 0.002,-19.4109 -13.861557,-32.42895 -32.541747,-32.42895 z M 56.909891,184.3359 H 43.94067 v -28.78551 h 12.969221 c 8.005796,0 13.098862,6.24806 13.098862,14.40033 -0.01684,8.13712 -5.093066,14.38518 -13.098862,14.38518 z"
   id="path6" />
</g>
<g
   id="g10">
</g>
<g
   id="g12">
</g>
<g
   id="g14">
</g>
<g
   id="g16">
</g>
<g
   id="g18">
</g>
<g
   id="g20">
</g>
<g
   id="g22">
</g>
<g
   id="g24">
</g>
<g
   id="g26">
</g>
<g
   id="g28">
</g>
<g
   id="g30">
</g>
<g
   id="g32">
</g>
<g
   id="g34">
</g>
<g
   id="g36">
</g>
<g
   id="g38">
</g>
</svg>
